<svg>
  <metadata id="metadata2991">
    <rdf:RDF>
      <cc:Work rdf:about="">
        <dc:format>image/svg+xml</dc:format>
        <dc:type rdf:resource="http://purl.org/dc/dcmitype/StillImage" />
        <dc:title></dc:title>
      </cc:Work>
    </rdf:RDF>
  </metadata>
  <defs id="defs2989" />
  <sodipodi:namedview pagecolor="#ffffff" bordercolor="#666666" borderopacity="1" objecttolerance="10" gridtolerance="10" guidetolerance="10" inkscape:pageopacity="0" inkscape:pageshadow="2" inkscape:window-width="1366" inkscape:window-height="706" id="namedview2987" showgrid="false" inkscape:zoom="1.3539823" inkscape:cx="140" inkscape:cy="169.5" inkscape:window-x="-8" inkscape:window-y="-8" inkscape:window-maximized="1" inkscape:current-layer="svg2985" />
  <path inkscape:connector-curvature="0" id="path2999" d="M 0,169.5 0,0 140,0 280,0 280,169.5 280,339 140,339 0,339 0,169.5 z" style="fill:#faf7f7" />
  <path inkscape:connector-curvature="0" id="path2997" d="M 0,169.5 0,0 140,0 280,0 280,169.5 280,339 140,339 0,339 0,169.5 z m 207.74493,149.58968 c 18.91839,-14.62109 32.4734,-34.84562 38.41737,-57.31999 l 2.30897,-8.73032 4.64608,4.57622 c 2.55534,2.51691 4.86406,4.19556 5.13049,3.73031 0.26642,-0.46524 1.43492,-3.7709 2.59665,-7.3459 10.94512,-33.68138 9.97271,-65.63356 -2.76279,-90.78184 C 254.7331,156.60582 246,143.56612 246,145.17856 c 0,0.29688 1.53326,3.86565 3.40724,7.93061 11.41327,24.75714 13.47427,56.66002 5.55691,86.01717 l -1.17954,4.37366 -6.21512,-6.88735 -6.21513,-6.88734 -1.15777,9.38734 c -2.41776,19.60344 -7.67575,34.8869 -16.60905,48.27763 -4.93203,7.39297 -16.93049,20.38935 -22.23374,24.08294 -2.10187,1.4639 -2.1821,1.34535 -3.8838,-5.73922 -0.95568,-3.9787 -2.01669,-7.76775 -2.3578,-8.42011 -0.42562,-0.81398 -2.34452,-0.0848 -6.1162,2.32421 -20.55917,13.13122 -42.2008,19.38466 -62.41486,18.03505 -9.82177,-0.65576 -21.91999,-3.40241 -29.230387,-6.63614 -3.929497,-1.73821 -4.499718,-2.35147 -3.982289,-4.28285 2.336664,-8.72197 3.807004,-26.40094 3.306309,-39.75416 -0.543748,-14.50139 -1.836466,-22.48475 -5.724808,-35.35437 l -2.070934,-6.85437 -6.761426,10.35437 c -8.240167,12.6189 -16.683707,23.11085 -25.923248,32.21224 l -6.961964,6.85788 -1.620647,-4.87932 C 41.357667,250.50717 40.321679,215.63009 45.440107,196.22705 46.49343,192.23408 46.533572,191 45.610129,191 c -0.664865,0 -5.461634,1.34205 -10.659487,2.98234 -12.480366,3.93842 -12.355569,3.95139 -11.531992,-1.19897 2.414709,-15.10076 15.857205,-42.2279 27.08262,-54.6531 4.166588,-4.61191 4.314371,-4.46418 -5.931754,-5.92982 -2.696735,-0.38575 -5.072684,-1.20995 -5.279887,-1.83156 -0.643733,-1.9312 11.23137,-16.69776 20.431855,-25.40679 l 8.773589,-8.304929 0.748992,5.204449 c 0.942127,6.54646 4.029727,12.68662 8.515691,16.93472 1.914499,1.81298 3.64108,3.13616 3.836847,2.94039 0.195766,-0.19577 -0.603289,-2.80412 -1.775678,-5.79633 -2.818045,-7.19233 -3.017665,-17.955586 -0.430464,-23.210094 4.09628,-8.31939 13.256931,-10.86961 23.008349,-6.405262 l 5.59352,2.560795 -1.45986,-2.82304 c -0.80291,-1.552672 -2.61061,-4.190643 -4.0171,-5.862159 l -2.557246,-3.039119 8.039256,-3.100266 c 17.5987,-6.786776 38.58495,-9.875005 55.57573,-8.178238 l 9.92689,0.991339 5.89151,6.312822 5.89151,6.312822 -0.67975,-5.278651 -0.67976,-5.27865 2.78825,0.67318 c 4.71138,1.137493 19.43564,6.448377 26.28824,9.481888 l 6.5,2.877423 -4,-3.481085 C 206.98313,71.082117 189.41948,63.81075 173,60.899068 c -4.125,-0.731491 -14.025,-1.313816 -22,-1.294056 -19.8992,0.0493 -34.25286,2.967182 -53.5,10.875724 -4.4,1.807936 -9.979883,3.827633 -12.399741,4.488215 -2.765686,0.754988 -6.293966,2.948364 -9.5,5.90573 C 72.795117,83.46225 67.8,87.570767 64.5,90.00472 55.960242,96.303315 41.90135,110.09681 35.553623,118.40466 30.193498,125.41994 23,136.70768 23,138.10327 c 0,0.39652 1.9125,1.01836 4.25,1.38188 8.224464,1.27905 8.097595,1.13704 5.21452,5.83664 -11.655758,18.99963 -18.895015,39.74907 -20.908308,59.92821 -0.46211,4.6317 -0.290294,5.75 0.88343,5.75 1.166283,0 8.253366,-2.01895 19.060358,-5.42987 0.644974,-0.20357 1.018686,7.53853 1.052633,21.80713 0.04474,18.8046 0.373533,23.56745 2.192141,31.75497 2.333905,10.50741 7.249757,24.0431 10.039586,27.64377 l 1.763463,2.276 6.976088,-5.71727 c 9.029615,-7.40024 17.266511,-15.90644 24.80988,-25.62105 5.288961,-6.8113 6.178802,-7.56263 7.106134,-6 1.844151,3.10755 1.293977,36.35059 -0.782592,47.28632 -3.3684,17.73883 -3.954105,15.30112 4.673394,19.45078 15.904823,7.64991 39.027673,11.16327 56.744523,8.62195 10.3407,-1.48328 27.27653,-6.99616 35.70917,-11.62391 3.45644,-1.89685 6.44051,-3.44882 6.63129,-3.44882 0.19077,0 0.87421,2.1375 1.51874,4.75 3.26233,13.22326 2.82674,12.42485 5.9091,10.8309 1.52006,-0.78605 6.87568,-4.6071 11.90138,-8.49122 z m 13.95318,-91.87548 c 1.39365,-2.3572 3.40367,-7.08039 4.46672,-10.49598 l 1.93282,-6.21017 -3.30711,-6.50403 -3.30712,-6.50402 -6.72462,-0.2953 c -6.46545,-0.28392 -6.92761,-0.1436 -11.99171,3.64094 -7.78079,5.81479 -14.72393,9.80568 -19.51709,11.21835 -2.3375,0.68892 -4.25,1.41634 -4.25,1.6165 0,1.92346 8.365,16.31951 9.48265,16.31951 2.31535,0 12.58771,-4.81629 16.28166,-7.6338 1.85188,-1.4125 3.5357,-2.39952 3.74183,-2.19339 0.34742,0.34742 2.49386,16.05837 2.49386,18.2539 0,1.70118 8.05369,-6.73975 10.69811,-11.21251 z M 187.5,194.98221 c 4.4,-2.15107 11.375,-6.52996 15.5,-9.73086 l 7.5,-5.81981 0.2884,-8.67946 0.28841,-8.67947 -4.78841,-2.4426 c -2.63362,-1.34343 -6.54089,-3.64031 -8.68282,-5.10417 -3.89229,-2.66012 -3.89717,-2.66067 -8.9453,-1.00952 C 178.88303,156.7143 157,169.58418 157,172.13641 c 0,0.48764 3.23196,6.98214 7.18213,14.43223 l 7.18213,13.54561 4.06787,-0.61049 c 2.23733,-0.33577 7.66787,-2.37047 12.06787,-4.52155 z m 48.97402,-4.20667 c 2.69189,-9.0646 1.3218,-28.68298 -2.50213,-35.82806 -0.94923,-1.77365 -1.3982,-1.62303 -6.93948,2.32809 l -5.92458,4.22443 -0.0539,9.21662 -0.0539,9.21662 4.56931,5.1448 c 2.51312,2.82964 5.28728,6.65039 6.16479,8.49055 0.87751,1.84017 1.95963,3.12069 2.40471,2.84562 0.44507,-0.27507 1.49592,-2.81247 2.33521,-5.63867 z M 174.47915,134.9317 C 169.54062,129.94414 164.6,125.36551 163.5,124.75696 c -1.1,-0.60854 -6.97585,-1.38031 -13.05744,-1.71504 -9.49987,-0.52288 -11.86276,-1.01607 -16.77466,-3.50126 -3.14448,-1.59096 -5.56603,-3.37596 -5.38123,-3.96666 0.60787,-1.94303 9.81402,-7.52642 14.9005,-9.03694 4.74985,-1.41056 5.26916,-1.36779 10.83055,0.89201 3.21281,1.30548 7.74098,3.50633 10.06259,4.89078 4.20231,2.50595 4.2327,2.50862 6.82041,0.59844 1.4296,-1.05529 4.03063,-2.32828 5.78006,-2.82885 l 3.18077,-0.91012 -1.92704,3.16034 c -3.62481,5.94468 -2.74521,8.19651 7.4032,18.95275 l 9.23905,9.79241 5.92172,-1.54241 c 8.79084,-2.28972 18.65053,-1.95579 27.00152,0.9145 1.1,0.37808 -1.825,-2.89901 -6.5,-7.28242 -10.97713,-10.29245 -10.53123,-9.80204 -14.47929,-15.92449 -3.88588,-6.02602 -2.84127,-6.71363 3.36704,-2.21636 3.79059,2.7459 4.3355,2.88597 5.74478,1.47669 0.85632,-0.85632 2.83464,-2.21767 4.39626,-3.02522 2.69426,-1.39325 2.94595,-1.33268 4.92699,1.1858 3.23963,4.11852 3.70499,7.37561 1.32871,9.2998 -1.98507,1.60742 -1.94131,1.71955 2.76337,7.08129 2.6292,2.9964 5.13141,5.09811 5.56045,4.67047 0.42905,-0.42764 0.79187,-3.80264 0.80627,-7.5 0.031,-7.9461 -2.30766,-13.8846 -7.90979,-20.08549 -4.91896,-5.4447 -20.32677,-17.050327 -28.67405,-21.598161 l -6.66927,-3.633602 -1.10725,5.297392 c -1.82895,8.750195 -1.80586,8.744897 -11.19622,2.56891 C 169.94689,84.253032 161.78759,80 159.19321,80 c -7.50178,0 -26.43219,7.174766 -34.81588,13.195479 l -4.54596,3.26466 2.91288,2.60266 2.91289,2.602661 -5.07857,2.66997 c -5.85786,3.07966 -14.82238,10.46106 -14.10817,11.61668 0.26659,0.43135 2.74481,1.08409 5.50716,1.45052 4.30843,0.57154 5.02556,0.98123 5.0444,2.88181 0.0651,6.56405 7.16846,15.07723 15.92723,19.08827 4.02388,1.84271 6.69291,2.1079 23.05081,2.29028 10.175,0.11344 19.85,0.647 21.5,1.18568 6.15286,2.00875 5.74256,0.93344 -3.02085,-7.91697 z M 89.774964,65.614994 c 27.471866,-13.827798 61.958546,-17.942015 92.092596,-10.98653 3.50216,0.808361 6.45653,1.33515 6.56528,1.170642 0.10874,-0.164508 0.757,-4.349106 1.44057,-9.299106 0.68358,-4.95 2.46918,-12.676142 3.96802,-17.169204 3.34119,-10.015913 2.7216,-9.864894 -8.60071,2.096347 l -8.06553,8.520677 -0.62428,-8.72391 c -0.34336,-4.798151 -0.94528,-11.701091 -1.3376,-15.339868 L 174.5,9.2680846 161.52023,23.634042 C 154.38135,31.535319 148.30021,38 148.00657,38 c -0.29364,0 -3.65382,-5.0625 -7.46707,-11.25 -3.81325,-6.1875 -7.90315,-12.719162 -9.08866,-14.514805 l -2.15548,-3.2648056 -4.80417,14.2648056 c -2.64229,7.845643 -5.16932,15.268645 -5.61561,16.495561 -0.77188,2.121991 -1.5558,1.713828 -16.07812,-8.371412 C 94.40079,25.528152 86.963115,20.53934 86.269295,20.273097 c -0.902504,-0.346324 -1.109644,0.328518 -0.727895,2.371411 1.507866,8.069206 4.324747,26.822679 4.067554,27.079872 -0.162481,0.16248 -2.354436,-1.276757 -4.871011,-3.198305 -5.086261,-3.883649 -16.719545,-10.900619 -17.188658,-10.367864 -0.165527,0.187984 1.892593,4.147325 4.5736,8.798535 2.681006,4.651211 6.112633,11.962541 7.625836,16.247402 1.513204,4.284861 2.875013,7.791825 3.026243,7.793254 0.15123,0.0014 3.30123,-1.520655 7,-3.382408 z" style="fill:#c00a26" />
</svg>
